<?xml version="1.0" encoding="UTF-8" standalone="no"?>
<!DOCTYPE svg PUBLIC "-//W3C//DTD SVG 1.1//EN" "http://www.w3.org/Graphics/SVG/1.1/DTD/svg11.dtd">
<svg width="100%" height="100%" viewBox="0 0 207 207" version="1.1" xmlns="http://www.w3.org/2000/svg" xmlns:xlink="http://www.w3.org/1999/xlink" xml:space="preserve" xmlns:serif="http://www.serif.com/" style="fill-rule:evenodd;clip-rule:evenodd;stroke-linejoin:round;stroke-miterlimit:2;">
    <g>
        <g>
            <path d="M104.265,117.959C103.961,121.539 106.391,140.488 107.645,147.918C108.242,151.438 109.879,157.173 109.29,160.218C108.449,164.462 108.206,169.954 108.669,173.152C108.961,175.094 109.88,184.051 108.565,187.327C107.877,189.045 106.616,197.849 106.616,197.849C103.331,206.143 105.185,205.735 105.185,205.735C106.202,206.983 107.944,205.833 107.944,205.833C109.271,206.679 110.19,205.632 110.19,205.632C111.329,206.575 112.657,205.516 112.657,205.516C114.088,206.259 115.415,204.889 115.415,204.889C116.237,205.303 116.438,204.78 116.438,204.78C118.904,204.622 115.062,196.73 115.062,196.73C114.142,189.642 115.975,185.697 115.975,185.697C121.979,167.892 122.284,163.167 119.884,156.457C119.208,154.52 119.037,153.753 119.348,152.912C120.067,150.971 119.543,143.164 120.42,140.064C122.112,134.085 123.781,118.922 124.651,111.847C125.82,102.317 120.51,89.539 120.51,89.539C119.347,84.339 121.052,65.812 121.052,65.812C123.433,69.517 123.342,76.057 123.342,76.057C122.964,82.916 128.883,93.399 128.883,93.399C131.727,97.731 132.804,101.841 132.804,102.146C132.804,103.394 132.531,106.415 132.531,106.415L132.64,109.046C132.689,109.716 133.066,112.023 133.005,113.138C132.561,120 133.651,118.709 133.651,118.709C134.571,118.709 135.582,113.187 135.582,113.187C135.582,114.611 135.234,118.874 136.002,120.482C136.921,122.4 137.597,120.153 137.609,119.702C137.852,110.965 138.377,113.254 138.377,113.254C138.888,120.342 139.516,121.943 140.642,121.389C141.495,120.982 140.715,112.883 140.715,112.883C142.176,117.694 143.284,118.46 143.284,118.46C145.695,120.153 144.204,115.477 143.869,114.551C142.085,109.631 142.03,107.926 142.03,107.926C144.259,112.347 145.939,112.183 145.939,112.183C148.113,111.489 144.039,105.229 141.652,102.23C140.434,100.702 138.863,98.656 138.407,97.441C137.664,95.383 137.103,88.767 137.103,88.767C136.878,80.96 134.948,77.569 134.948,77.569C131.648,72.287 131.027,62.434 131.027,62.434L130.881,45.799C129.724,34.452 121.363,34.37 121.363,34.37C112.912,33.112 111.736,30.382 111.736,30.382C109.946,27.806 110.969,22.868 110.969,22.868C112.454,21.66 113.027,18.453 113.027,18.453C115.493,16.562 115.372,13.795 114.233,13.825C113.319,13.849 113.526,13.092 113.526,13.092C115.068,0.636 104.01,0 104.01,0L102.322,0C102.322,0 91.259,0.636 92.799,13.089C92.799,13.089 93.006,13.847 92.084,13.822C90.948,13.792 90.842,16.559 93.299,18.45C93.299,18.45 93.871,21.656 95.357,22.865C95.357,22.865 96.38,27.803 94.59,30.379C94.59,30.379 93.418,33.109 84.963,34.367C84.963,34.367 76.588,34.449 75.449,45.796L75.291,62.431C75.291,62.431 74.682,72.284 71.369,77.566C71.369,77.566 69.448,80.958 69.226,88.764C69.226,88.764 68.663,95.38 67.923,97.438C67.472,98.647 65.902,100.693 64.674,102.227C62.266,105.22 58.219,111.467 60.384,112.18C60.384,112.18 62.073,112.344 64.293,107.923C64.293,107.923 64.247,109.616 62.466,114.548C62.116,115.462 60.627,120.138 63.039,118.457C63.039,118.457 64.156,117.69 65.608,112.88C65.608,112.88 64.829,120.979 65.696,121.386C66.829,121.941 67.447,120.339 67.958,113.251C67.958,113.251 68.482,110.962 68.725,119.699C68.737,120.15 69.398,122.397 70.321,120.479C71.1,118.871 70.75,114.615 70.75,113.184C70.75,113.184 71.749,118.706 72.683,118.706C72.683,118.706 73.782,119.997 73.331,113.135C73.258,112.014 73.651,109.713 73.7,109.043L73.806,106.412C73.806,106.412 73.532,103.398 73.532,102.143C73.532,101.832 74.61,97.728 77.453,93.396C77.453,93.396 83.366,82.908 82.985,76.054C82.985,76.054 82.903,69.514 85.284,65.809C85.284,65.809 86.974,84.335 85.829,89.536C85.829,89.536 80.51,102.314 81.683,111.844C82.547,118.938 84.213,134.081 85.909,140.061C86.795,143.155 86.271,150.96 86.981,152.909C87.301,153.756 87.133,154.536 86.445,156.454C84.058,163.164 84.362,167.89 90.366,185.694C90.366,185.694 92.214,189.639 91.28,196.727C91.28,196.727 87.444,204.619 89.901,204.777C89.901,204.777 90.093,205.3 90.924,204.886C90.924,204.886 92.251,206.256 93.685,205.513C93.685,205.513 95.013,206.573 96.148,205.629C96.148,205.629 97.058,206.676 98.385,205.83C98.385,205.83 100.127,207.005 101.162,205.732C101.162,205.732 103.001,206.14 99.727,197.846C99.727,197.846 98.473,189.053 97.782,187.324C96.464,184.049 97.395,175.073 97.676,173.149C98.129,169.933 97.886,164.454 97.058,160.215C96.452,157.177 98.093,151.441 98.699,147.915C99.944,140.492 102.384,121.542 102.079,117.956L103.087,118.31C103.809,118.312 104.265,117.959 104.265,117.959Z" style="fill:rgb(33,208,195);fill-rule:nonzero;"/>
        </g>
    </g>
</svg>
