<?xml version="1.0" encoding="utf-8"?>
<!-- Svg Vector Icons : http://www.onlinewebfonts.com/icon -->
<!DOCTYPE svg PUBLIC "-//W3C//DTD SVG 1.1//EN" "http://www.w3.org/Graphics/SVG/1.1/DTD/svg11.dtd">
<svg version="1.1" xmlns="http://www.w3.org/2000/svg" xmlns:xlink="http://www.w3.org/1999/xlink" x="0px" y="0px" viewBox="0 0 1000 1000" enable-background="new 0 0 1000 1000" xml:space="preserve">
<metadata> Svg Vector Icons : http://www.onlinewebfonts.com/icon </metadata>
<g><g transform="translate(0.000000,512.000000) scale(0.100000,-0.100000)"><path d="M4821.9,4997.1c-160.9-61.3-256.7-183.9-298.8-388.9c-28.7-134.1-67.1-206.9-128.4-239.5l-51.7-26.8l44.1-30.6c42.1-28.7,42.1-28.7,3.8-49.8c-23-11.5-55.6-21.1-74.7-21.1c-30.6-1.9-30.6-3.8,5.8-36.4c30.6-24.9,40.2-47.9,32.6-90c-5.7-38.3-3.8-47.9,9.6-28.7c9.6,13.4,28.7,23,42.1,17.2c15.3-3.8,9.6-23-17.2-57.5l-40.2-49.8l57.5-11.5c61.3-11.5,78.5-61.3,28.7-80.5c-15.3-7.7-28.7-19.2-28.7-28.7c0-24.9,65.1-21.1,93.9,7.7c21.1,19.2,24.9,13.4,17.2-28.7c-7.7-40.2-1.9-53.6,21.1-53.6c19.2,0,44.1,11.5,57.5,24.9c21.1,19.2,23,9.6,13.4-51.7c-15.3-78.5-9.6-80.5,91.9-40.2c32.6,13.4,34.5,7.7,21.1-69c-28.7-178.2-55.6-206.9-308.4-333.3c-128.3-63.2-268.2-130.3-312.3-151.3c-95.8-42.1-164.8-136-193.5-266.3c-11.5-49.8-28.7-231.8-38.3-402.3c-21.1-356.3-70.9-666.7-153.3-948.3c-32.6-114.9-72.8-331.4-97.7-517.2c-36.4-295-88.1-586.2-132.2-750.9c-9.6-38.3-46-93.9-78.5-124.5c-32.6-32.6-74.7-91.9-93.9-136c-19.2-44.1-61.3-109.2-93.9-147.5c-34.5-36.4-51.7-72.8-42.1-78.6c26.8-17.2,116.9,21.1,159,70.9c36.4,42.1,36.4,42.1,24.9,0c-24.9-92-47.9-272-47.9-383.1c0-93.9,5.7-120.7,28.7-120.7c15.3,0,28.7-7.7,28.7-19.2c0-23,82.4-26.8,103.4-5.8c7.7,7.7,28.7,15.3,46,15.3c44.1,0,157.1,233.7,210.7,429.1C3758.7-108.2,3774,1,3774,104.4c0,132.2,11.5,191.6,59.4,323.8c174.3,478.9,210.7,601.5,229.9,760.5c23,185.8,145.6,850.6,160.9,865.9c5.7,3.8,9.6-19.2,9.6-53.6c0-32.6,26.8-191.6,59.4-352.5c69-348.7,65.1-400.4-78.5-741.4c-183.9-440.6-222.2-645.6-205-1072.8c15.3-327.6,40.2-509.6,159-1101.5l88.1-440.6l-15.3-306.5c-32.6-622.6-24.9-718.4,74.7-1214.5c80.5-388.9,92-477,88.1-641.8c-3.8-107.3,1.9-220.3,9.6-254.8c21.1-88.1-17.2-199.2-114.9-342.9c-99.6-145.6-101.5-197.3-3.8-256.7c67-40.2,237.5-69,300.8-47.9c55.6,17.2,88.1,86.2,128.4,277.8c46,216.5,49.8,431,13.4,651.3c-42.1,252.9-36.4,501.9,13.4,775.8c38.3,195.4,44.1,300.8,47.9,708.8c1.9,467.4,36.4,955.9,95.8,1408c15.3,120.7,34.5,364,42.1,542.1l11.5,319.9h51.7h51.7l11.5-329.5c7.7-182,26.8-425.3,42.1-542.1c57.5-408,93.9-925.3,95.8-1398.4c3.8-402.3,11.5-515.3,46-708.8c49.8-273.9,55.6-530.6,15.3-766.3c-36.4-216.5-32.6-450.2,13.4-660.9c42.1-193.5,72.8-260.5,128.4-277.8c63.2-21.1,233.7,7.7,300.8,47.9c97.7,59.4,95.8,111.1-3.8,256.7c-101.5,149.4-134.1,252.9-114.9,364c7.7,42.1,13.4,157.1,9.6,250.9c-3.8,143.7,11.5,254.8,93.9,670.5c93.9,475.1,97.7,507.7,88.1,718.4c-40.2,795-44.1,705,61.3,1245.2c130.3,659,147.5,795,145.6,1197.3c0,385.1-23,498.1-153.3,810.3c-189.6,454-203.1,544.1-126.4,858.2c23,97.7,47.9,229.9,55.6,296.9c9.6,97.7,15.3,113,26.8,74.7c23-74.7,126.4-660.9,149.4-841c19.2-147.5,59.4-283.5,229.9-749c47.9-134.1,59.4-191.6,59.4-323.8c0-103.4,15.3-216.5,38.3-308.4c51.7-189.7,172.4-431,214.6-431c17.2,0,38.3-7.7,46-15.3c21.1-21.1,103.5-17.2,103.5,5.8c0,11.5,13.4,19.2,28.7,19.2c23,0,28.7,26.8,28.7,120.7c0,111.1-23,293.1-47.9,383.1l-11.5,42.1l34.5-42.1c38.3-46,134.1-88.1,160.9-70.9c9.6,5.7-9.6,42.1-42.1,80.5c-32.6,36.4-72.8,99.6-88.1,136c-15.3,38.3-57.5,99.6-95.8,137.9c-93.9,97.7-149.4,335.2-226,955.9c-19.2,141.8-53.6,331.4-80.5,421.4c-101.5,341-116.8,440.6-178.2,1176.2c-26.8,337.2-76.6,421.4-308.4,509.6c-57.5,21.1-180.1,80.5-275.8,130.3c-187.7,97.7-222.2,141.8-249,308.4c-13.4,76.6-11.5,82.4,21.1,69c95.8-38.3,105.4-36.4,84.3,17.2c-9.6,28.7-19.2,65.1-19.2,82.4c0,26.8,3.8,26.8,34.5,0c57.5-51.7,95.8-42.1,84.3,21.1c-7.7,42.1-3.8,47.9,17.2,28.7c30.7-28.7,93.9-32.6,93.9-5.8c0,11.5-13.4,19.2-28.7,19.2c-47.9,0-32.6,36.4,28.7,67.1c53.6,26.8,55.5,32.6,28.7,59.4c-38.3,38.3-36.4,72.8,1.9,57.5c26.8-9.6,30.7-1.9,21.1,53.6c-9.6,55.6-3.8,67.1,30.6,78.5c40.2,11.5,40.2,13.4-9.6,28.7c-88.1,26.8-97.7,40.2-51.7,72.8l42.1,28.7l-51.7,26.8c-63.2,32.6-97.7,99.6-136,266.3c-59.4,254.8-191.6,371.6-438.7,383.1C4944.5,5023.9,4867.9,5016.2,4821.9,4997.1z"/></g></g>
</svg>